# xmcd
#
# Track frame offsets:
#	150
#	17585
#	33348
#	48681
#	66577
#	82290
#	96751
#	116031
#	138857
#	156525
#	181474
#	197469
#	214343
#	235557
#	251620
#	270694
#	287036
#	301980
#	317267
#	332200
#
# Disc length: 4660 seconds
#
# Revision: 0
# Processed by: cddbd v1.5.2PL0 Copyright (c) Steve Scherf et al.
# Submitted via: EasyCDDAExtractor 16.0.9.1
#
DISCID=28123214
DTITLE=Various Artist - MTV 20 Top Dance Hits
DYEAR=2001
DGENRE=Dance, Pop
TTITLE0=Texas - Inner Smile
TTITLE1=DJ Bobo - What A Feeling
TTITLE2=Craig David - Walking Away
TTITLE3=S Club7 - Reach
TTITLE4=Lionel Richie - Don't Stop The Music
TTITLE5=Sweetbox - For The Lonely
TTITLE6=Robbie Williams - Supreme
TTITLE7=Jennifer Lopez - Love Don't Cost A Thing
TTITLE8=Barcode Brothers - Dooh Dooh
TTITLE9=L.L Cool J feat. Kelly Price - Between You And Me
TTITLE10=Cosmic Girls - Exploration Of Spice
TTITLE11=B.B. Mak - Back Here
TTITLE12=Fatboy Slim feat. Macy Grey - Demons
TTITLE13=Santos - Camels
TTITLE14=Marque - River
TTITLE15=Da Muttz - Wassup
TTITLE16=Storm - Storm Animals
TTITLE17=Britney Spears - Strongers
TTITLE18=Eminem - Stan
TTITLE19=Limp Bizkit - Rollin
EXTD=
EXTT0=
EXTT1=
EXTT2=
EXTT3=
EXTT4=
EXTT5=
EXTT6=
EXTT7=
EXTT8=
EXTT9=
EXTT10=
EXTT11=
EXTT12=
EXTT13=
EXTT14=
EXTT15=
EXTT16=
EXTT17=
EXTT18=
EXTT19=
PLAYORDER=
